<?xml version="1.0" encoding="UTF-8"?>
<!DOCTYPE svg PUBLIC "-//W3C//DTD SVG 1.1//EN" "http://www.w3.org/Graphics/SVG/1.1/DTD/svg11.dtd">
<!-- Creator: CorelDRAW -->
<svg xmlns="http://www.w3.org/2000/svg" xml:space="preserve" width="15.9763mm" height="16.5234mm" version="1.1" style="shape-rendering:geometricPrecision; text-rendering:geometricPrecision; image-rendering:optimizeQuality; fill-rule:evenodd; clip-rule:evenodd"
viewBox="0 0 31.07 32.13"
 xmlns:xlink="http://www.w3.org/1999/xlink"
 xmlns:xodm="http://www.corel.com/coreldraw/odm/2003">
 <defs>
  <style type="text/css">
   <![CDATA[
    .fil0 {fill:#FEFEFE;fill-rule:nonzero}
   ]]>
  </style>
 </defs>
 <g id="Camada_x0020_1">
  <metadata id="CorelCorpID_0Corel-Layer"/>
  <path class="fil0" d="M12.91 4.09c-0.2,-0.13 -0.26,-0.39 -0.13,-0.58 0.13,-0.2 0.39,-0.26 0.58,-0.13 0.58,0.37 1.5,0.84 2.7,1.12 0.13,-0.03 0.26,-0.06 0.38,-0.1 1.09,-0.3 1.91,-0.76 2.42,-1.09 0.19,-0.13 0.46,-0.07 0.58,0.12 0.13,0.19 0.07,0.46 -0.12,0.58 -0.33,0.22 -0.78,0.48 -1.33,0.73 0.53,0.01 1.1,-0.03 1.7,-0.12 0.23,-0.04 0.45,0.12 0.48,0.35 0.04,0.23 -0.12,0.45 -0.35,0.48 -1.36,0.22 -2.57,0.15 -3.61,-0.05l-0.15 -0.03c-1.07,0.23 -2.33,0.31 -3.76,0.08 -0.23,-0.04 -0.39,-0.25 -0.35,-0.48 0.04,-0.23 0.25,-0.39 0.48,-0.35 0.6,0.09 1.16,0.13 1.69,0.12 -0.49,-0.22 -0.9,-0.45 -1.21,-0.65zm6.42 4.61l2.66 -0.91 1.06 -3.25 0.35 0.12 0.37 -0.12 1.04 3.23 2.67 0.89 0 -0c0.13,0.04 0.23,0.13 0.29,0.23 0.06,0.09 0.09,0.2 0.09,0.3 0,0.11 -0.03,0.21 -0.09,0.3l-0 0c-0.06,0.1 -0.16,0.19 -0.29,0.23l-2.66 0.91 -1.06 3.25 -0.35 -0.11 -0.01 0 -0.36 0.12 -1.04 -3.23 -2.67 -0.88 -0 0c-0.13,-0.04 -0.23,-0.13 -0.29,-0.23 -0.06,-0.09 -0.09,-0.2 -0.09,-0.3 -0,-0.11 0.03,-0.21 0.09,-0.3 0.06,-0.1 0.16,-0.18 0.29,-0.23zm0.17 0.55l0.01 -0.02 -0.01 -0.02c0,0.01 0,0.03 0,0.04zm2.67 1.2l0 0 0.04 -0.13 -0.04 0.13zm0.16 -0.49l0 -0c0.07,0.02 0.13,0.06 0.18,0.1l0 0c0.05,0.04 0.1,0.1 0.13,0.16l-0.33 0.18 0.36 -0.12 0.72 2.24 0.74 -2.26 0.36 0.12 -0.34 -0.18c0.03,-0.06 0.08,-0.12 0.13,-0.17 0.05,-0.05 0.12,-0.08 0.18,-0.1l2.2 -0.75 -2.21 -0.73 0.16 -0.48c-0.06,0.16 -0.11,0.32 -0.16,0.48 -0.06,-0.02 -0.12,-0.06 -0.18,-0.1l-0 0c-0.05,-0.04 -0.1,-0.1 -0.13,-0.16l0.33 -0.18 -0.36 0.12 -0.72 -2.25 -0.74 2.26 -0.32 -0.1c0.07,0.04 0.17,0.1 0.29,0.17 -0.03,0.06 -0.08,0.12 -0.13,0.16 -0.05,0.04 -0.11,0.08 -0.18,0.1 -0.01,-0.04 -0.03,-0.08 -0.04,-0.12l0.04 0.12 -2.2 0.75 2.21 0.73zm2.31 0.48l-0.17 -0.49 0.17 0.49zm2.65 -1.25l0 -0 -0 0 -0 0 0 0zm0.15 -0.47l-0.15 0.45c0.03,-0.07 0.11,-0.32 0.15,-0.45zm-13.52 2.93l1.97 -0.67 0.78 -2.41 0.26 0.09 0.27 -0.09 0.77 2.4 1.98 0.66 0 -0c0.1,0.03 0.17,0.09 0.22,0.17 0.04,0.07 0.07,0.15 0.07,0.23 0,0.08 -0.02,0.16 -0.06,0.22l-0 0c-0.05,0.08 -0.12,0.14 -0.22,0.17l-1.97 0.67 -0.78 2.41 -0.26 -0.08 -0.01 0 -0.27 0.09 -0.77 -2.39 -1.98 -0.66 -0 0c-0.1,-0.03 -0.17,-0.09 -0.22,-0.17 -0.04,-0.07 -0.07,-0.15 -0.07,-0.23 -0,-0.08 0.02,-0.16 0.06,-0.23 0.05,-0.08 0.12,-0.14 0.22,-0.17zm0.13 0.41l0.01 -0.02 -0.01 -0.02c0,0.01 0,0.02 0,0.03zm1.98 0.89l0 -0 0.03 -0.1 -0.03 0.1zm0.12 -0.36l0 -0c0.05,0.02 0.1,0.04 0.14,0.07l0 0c0.04,0.03 0.07,0.07 0.1,0.12l-0.25 0.14 0.27 -0.09 0.54 1.66 0.55 -1.67 0.27 0.09 -0.25 -0.13c0.02,-0.05 0.06,-0.09 0.1,-0.12 0.04,-0.03 0.09,-0.06 0.13,-0.08l1.63 -0.56 -1.64 -0.54 0.12 -0.36c-0.04,0.12 -0.08,0.24 -0.12,0.36 -0.05,-0.02 -0.09,-0.04 -0.13,-0.07l-0 0c-0.04,-0.03 -0.07,-0.07 -0.1,-0.12l0.25 -0.14 -0.27 0.09 -0.54 -1.66 -0.55 1.67 -0.24 -0.08c0.05,0.03 0.13,0.07 0.22,0.12 -0.02,0.05 -0.06,0.09 -0.1,0.12 -0.04,0.03 -0.08,0.06 -0.13,0.08 -0.01,-0.03 -0.02,-0.06 -0.03,-0.09l0.03 0.09 -1.63 0.56 1.64 0.54zm1.71 0.35l-0.12 -0.37 0.12 0.37zm1.96 -0.92l0 -0 0 0 -0 0 0 0zm0.11 -0.35l-0.11 0.33c0.02,-0.06 0.08,-0.24 0.11,-0.33zm9.02 -7.9c-0.53,-0.83 -1.25,-1.43 -2.07,-1.86 -0.84,-0.45 -1.77,-0.74 -2.7,-0.93 -0.8,-0.17 -1.61,-0.17 -2.39,-0.03 -0.81,0.15 -1.6,0.45 -2.35,0.89 -0.56,0.33 -1.14,0.58 -1.75,0.74 -0.61,0.17 -1.25,0.26 -1.88,0.26l-0.62 0c-0.63,-0.01 -1.27,-0.09 -1.88,-0.26 -0.6,-0.17 -1.19,-0.42 -1.75,-0.74 -0.74,-0.44 -1.54,-0.74 -2.35,-0.89 -0.78,-0.14 -1.58,-0.13 -2.39,0.03 -0.93,0.19 -1.86,0.48 -2.7,0.93 -0.82,0.44 -1.55,1.04 -2.07,1.86 -0.92,1.45 -1.31,3.25 -1.24,5.05 0.07,1.92 0.65,3.84 1.63,5.33 0.25,0.37 0.38,0.8 0.45,1.24 0.06,0.42 0.07,0.85 0.04,1.26 -0.04,0.56 -0.06,1.1 -0.07,1.63 -0.01,0.53 -0,1.07 0.02,1.62 0.03,0.68 0.07,1.36 0.14,2.05 0.07,0.67 0.16,1.35 0.29,2.02 0.22,1.13 0.54,2.27 1.01,3.31 0.47,1.03 1.08,1.97 1.89,2.74 0.2,0.19 0.41,0.37 0.63,0.53 0.22,0.17 0.45,0.32 0.68,0.46 0.08,0.05 0.16,0.09 0.24,0.12 0.48,0.21 0.98,0.2 1.42,0.02 0.46,-0.19 0.86,-0.55 1.15,-1.04 0.06,-0.11 0.12,-0.22 0.17,-0.33 0.35,-0.82 0.43,-1.77 0.51,-2.71l0.01 -0.16c0.1,-1.19 0.35,-2.34 0.9,-3.25 0.58,-0.95 1.46,-1.62 2.82,-1.77 0.07,-0.01 0.15,-0.01 0.23,-0.02 0.07,-0 0.15,-0 0.22,-0 0.06,-0 0.12,0 0.17,0l0.13 0.01 0.13 -0.01c0.05,-0 0.11,-0 0.17,-0 0.08,-0 0.15,-0 0.22,0 0.08,0 0.16,0.01 0.23,0.02 1.35,0.15 2.24,0.82 2.82,1.77 0.55,0.91 0.8,2.06 0.9,3.25l0.01 0.16c0.08,0.94 0.16,1.9 0.51,2.71 0.05,0.11 0.11,0.22 0.17,0.33 0.29,0.49 0.69,0.85 1.15,1.04 0.44,0.18 0.93,0.19 1.42,-0.02 0.08,-0.03 0.16,-0.07 0.24,-0.12 0.24,-0.14 0.46,-0.29 0.69,-0.46 0.22,-0.17 0.43,-0.34 0.63,-0.53 0.81,-0.77 1.42,-1.71 1.89,-2.74 0.47,-1.04 0.79,-2.18 1.01,-3.31l0 -0c0.13,-0.67 0.22,-1.34 0.29,-2.02 0.07,-0.68 0.11,-1.36 0.14,-2.05 0.02,-0.56 0.03,-1.09 0.02,-1.62 -0.01,-0.52 -0.03,-1.06 -0.07,-1.63 -0.03,-0.41 -0.03,-0.84 0.04,-1.26 0.07,-0.44 0.21,-0.86 0.45,-1.24 0.98,-1.49 1.56,-3.41 1.63,-5.33 0.07,-1.8 -0.32,-3.6 -1.24,-5.05zm-1.67 -2.61c0.94,0.5 1.77,1.19 2.38,2.16 1.02,1.6 1.45,3.57 1.37,5.53 -0.08,2.07 -0.71,4.14 -1.77,5.76 -0.17,0.26 -0.27,0.57 -0.32,0.9 -0.05,0.35 -0.05,0.72 -0.03,1.08 0.04,0.56 0.06,1.1 0.07,1.67 0.01,0.55 0,1.1 -0.02,1.67 -0.03,0.7 -0.07,1.4 -0.14,2.1 -0.07,0.71 -0.17,1.4 -0.3,2.09 -0.23,1.2 -0.57,2.39 -1.07,3.5 -0.51,1.12 -1.18,2.16 -2.08,3.01 -0.22,0.21 -0.46,0.41 -0.7,0.6 -0.25,0.19 -0.5,0.36 -0.76,0.51 -0.11,0.06 -0.22,0.12 -0.33,0.17 -0.71,0.31 -1.43,0.29 -2.07,0.03 -0.63,-0.26 -1.18,-0.74 -1.56,-1.39 -0.08,-0.13 -0.15,-0.27 -0.22,-0.42 -0.41,-0.95 -0.5,-1.98 -0.58,-2.98l-0.01 -0.16c-0.09,-1.07 -0.31,-2.1 -0.78,-2.88 -0.44,-0.73 -1.13,-1.25 -2.19,-1.37 -0.06,-0.01 -0.12,-0.01 -0.17,-0.01 -0.06,-0 -0.12,-0 -0.17,-0l-0.01 0c-0.04,-0 -0.08,0 -0.12,0l-0.14 0.01 -0.07 0 -0.14 -0.01c-0.05,-0 -0.09,-0 -0.12,-0l-0.01 0c-0.06,-0 -0.11,-0 -0.18,0 -0.05,0 -0.11,0.01 -0.17,0.01 -1.05,0.12 -1.74,0.64 -2.19,1.37 -0.47,0.78 -0.69,1.81 -0.78,2.88l-0.01 0.16c-0.08,1 -0.17,2.03 -0.58,2.98 -0.07,0.15 -0.14,0.29 -0.22,0.42 -0.38,0.65 -0.93,1.13 -1.56,1.39 -0.64,0.26 -1.36,0.28 -2.07,-0.03 -0.11,-0.05 -0.22,-0.11 -0.33,-0.17 -0.26,-0.16 -0.52,-0.33 -0.76,-0.51 -0.24,-0.18 -0.48,-0.38 -0.7,-0.6 -0.89,-0.85 -1.57,-1.88 -2.08,-3.01 -0.5,-1.11 -0.84,-2.31 -1.07,-3.5 -0.13,-0.69 -0.23,-1.39 -0.3,-2.09 -0.07,-0.7 -0.12,-1.4 -0.14,-2.1 -0.02,-0.56 -0.03,-1.12 -0.02,-1.67 0.01,-0.56 0.03,-1.11 0.07,-1.67 0.02,-0.36 0.02,-0.73 -0.03,-1.08 -0.05,-0.33 -0.15,-0.64 -0.32,-0.9 -1.07,-1.62 -1.7,-3.69 -1.77,-5.76 -0.07,-1.96 0.35,-3.93 1.37,-5.53 0.61,-0.96 1.45,-1.65 2.38,-2.16 0.92,-0.49 1.93,-0.8 2.93,-1.01 0.91,-0.19 1.82,-0.2 2.71,-0.04 0.91,0.16 1.8,0.5 2.63,0.99 0.49,0.29 1.01,0.51 1.55,0.66 0.54,0.15 1.1,0.23 1.66,0.23l0.61 0c0.56,-0 1.12,-0.08 1.66,-0.23 0.53,-0.15 1.05,-0.37 1.55,-0.66 0.83,-0.49 1.71,-0.82 2.63,-0.99 0.89,-0.16 1.8,-0.15 2.71,0.04 1,0.21 2.01,0.52 2.93,1.01z"/>
 </g>
</svg>
