<?xml version="1.0" encoding="UTF-8"?>
<!DOCTYPE svg PUBLIC "-//W3C//DTD SVG 1.1//EN" "http://www.w3.org/Graphics/SVG/1.1/DTD/svg11.dtd">
<!-- Creator: CorelDRAW -->
<svg xmlns="http://www.w3.org/2000/svg" xml:space="preserve" width="12.9221mm" height="16.6288mm" version="1.1" style="shape-rendering:geometricPrecision; text-rendering:geometricPrecision; image-rendering:optimizeQuality; fill-rule:evenodd; clip-rule:evenodd"
viewBox="0 0 20.4 26.25"
 xmlns:xlink="http://www.w3.org/1999/xlink"
 xmlns:xodm="http://www.corel.com/coreldraw/odm/2003">
 <defs>
  <style type="text/css">
   <![CDATA[
    .fil0 {fill:#FEFEFE;fill-rule:nonzero}
   ]]>
  </style>
 </defs>
 <g id="Camada_x0020_1">
  <metadata id="CorelCorpID_0Corel-Layer"/>
  <path class="fil0" d="M4.35 14.77l10.14 0.03 -10.14 -0.03zm3.83 -11.65c-0.15,0.01 -0.27,-0.11 -0.28,-0.25 -0.01,-0.15 0.11,-0.27 0.25,-0.28 0.88,-0.05 1.72,-0.23 2.49,-0.57 0.22,-0.1 0.44,-0.21 0.65,-0.33 -0.29,0.06 -0.59,0.08 -0.89,0.09l-0.41 0c-0.41,-0 -0.83,-0.06 -1.23,-0.16 -0.4,-0.1 -0.78,-0.26 -1.15,-0.46 -0.49,-0.27 -1.01,-0.46 -1.55,-0.55 -0.52,-0.09 -1.05,-0.08 -1.58,0.02 -0.61,0.12 -1.23,0.3 -1.78,0.58 -0.54,0.27 -1.01,0.64 -1.36,1.16 -0.61,0.9 -0.86,2.01 -0.81,3.12 0.05,1.19 0.43,2.37 1.07,3.29 0.08,0.12 0.06,0.29 -0.07,0.37 -0.12,0.08 -0.29,0.06 -0.37,-0.07 -0.7,-1.01 -1.12,-2.29 -1.17,-3.58 -0.05,-1.22 0.23,-2.44 0.91,-3.44 0.4,-0.6 0.95,-1.02 1.57,-1.34 0.6,-0.31 1.27,-0.5 1.92,-0.63 0.59,-0.12 1.19,-0.12 1.77,-0.02 0.6,0.1 1.18,0.31 1.72,0.61 0.32,0.18 0.67,0.32 1.02,0.41 0.36,0.09 0.73,0.14 1.1,0.15l0.2 -0 0.2 0c0.37,-0 0.74,-0.05 1.1,-0.15 0.35,-0.09 0.7,-0.23 1.02,-0.41l0.14 -0.07c0.03,-0.03 0.07,-0.05 0.12,-0.06 0.47,-0.23 0.96,-0.39 1.47,-0.48 0.58,-0.1 1.17,-0.09 1.77,0.02 0.65,0.13 1.32,0.32 1.92,0.63 0.62,0.31 1.16,0.74 1.57,1.34 0.67,1 0.95,2.22 0.91,3.44 -0.05,1.29 -0.47,2.57 -1.17,3.58 -0.08,0.12 -0.25,0.15 -0.37,0.07 -0.12,-0.08 -0.15,-0.25 -0.07,-0.37 0.64,-0.92 1.03,-2.11 1.07,-3.29 0.04,-1.11 -0.21,-2.22 -0.81,-3.12 -0.35,-0.51 -0.82,-0.88 -1.36,-1.16 -0.55,-0.28 -1.17,-0.46 -1.78,-0.58 -0.53,-0.11 -1.06,-0.11 -1.58,-0.02 -0.47,0.08 -0.92,0.23 -1.35,0.45 -0.63,0.64 -1.34,1.12 -2.12,1.46 -0.83,0.37 -1.74,0.56 -2.68,0.62zm7.8 10.64l-0.65 -0 1.66 -3.77 -13.59 0.19 1.68 3.55 -0.66 -0 0 -0.16 -0.01 0 -1.86 -3.92 15.26 -0.22 -1.83 4.16 -0.01 -0 0 0.16zm-11.56 -0.03c-0.11,0 -0.21,0.04 -0.28,0.11 -0.07,0.07 -0.11,0.16 -0.11,0.27 -0,0.11 0.04,0.2 0.11,0.27 0.07,0.07 0.17,0.11 0.27,0.11l0 0.54c-0.26,-0 -0.49,-0.1 -0.65,-0.27 -0.17,-0.17 -0.27,-0.4 -0.27,-0.65 0,-0.26 0.1,-0.49 0.27,-0.65 0.17,-0.16 0.39,-0.27 0.65,-0.27l0 0.54zm-0.01 0.77l1.03 0 1.04 2.19 -0.78 -0 0 -0.39 -0.6 -1.26 -0.69 -0 0 -0.54zm1.29 2.19c-0.11,0 -0.21,0.04 -0.28,0.11 -0.07,0.07 -0.11,0.16 -0.11,0.27 -0,0.11 0.04,0.2 0.11,0.27 0.07,0.07 0.17,0.11 0.27,0.11l0 0.54c-0.26,-0 -0.49,-0.1 -0.65,-0.27 -0.17,-0.17 -0.27,-0.4 -0.27,-0.65 0,-0.26 0.1,-0.49 0.27,-0.65 0.17,-0.16 0.4,-0.27 0.65,-0.27l0 0.54zm-0 0.77l1.15 0 1.04 2.19 -0.97 -0 0 -0.54 0.12 0 -0.53 -1.11 -0.81 -0 0 -0.54zm1.22 2.19c-0.11,0 -0.21,0.05 -0.28,0.12 -0.07,0.07 -0.11,0.16 -0.11,0.27 -0,0.11 0.04,0.2 0.11,0.27 0.07,0.07 0.17,0.11 0.27,0.11l0 0.54c-0.26,-0 -0.49,-0.1 -0.65,-0.27 -0.17,-0.17 -0.27,-0.4 -0.27,-0.65 0,-0.25 0.1,-0.48 0.27,-0.65 0.17,-0.17 0.4,-0.27 0.65,-0.27l0.01 0.54zm-0.01 0.77l1.34 0 1.07 2.26 -1.01 -0 0 -0.54 0.16 0 -0.56 -1.18 -1 -0 0 -0.54zm1.4 2.26c-0.11,0 -0.21,0.04 -0.28,0.11 -0.07,0.07 -0.11,0.16 -0.11,0.27 -0,0.11 0.04,0.2 0.11,0.27 0.07,0.07 0.17,0.11 0.27,0.11l0 0.54c-0.26,-0 -0.49,-0.1 -0.65,-0.27 -0.17,-0.17 -0.27,-0.4 -0.27,-0.65 0,-0.26 0.1,-0.49 0.27,-0.65 0.17,-0.17 0.4,-0.27 0.65,-0.27l0 0.54zm-0 0.77l1.38 0 0.71 1.5 0.66 -1.49 1.31 0 0 0.54 -0.96 -0 -0.99 2.25 -1.07 -2.26 -1.04 -0 0 -0.54zm4.06 0.01l0.01 -0c0.1,-0 0.2,-0.04 0.27,-0.11 0.07,-0.07 0.11,-0.17 0.11,-0.27 0,-0.11 -0.04,-0.2 -0.11,-0.27 -0.07,-0.07 -0.17,-0.11 -0.27,-0.11l0 -0.54c0.26,0 0.49,0.1 0.65,0.27 0.17,0.17 0.27,0.4 0.27,0.65 -0,0.25 -0.1,0.48 -0.27,0.65 -0.16,0.17 -0.39,0.27 -0.64,0.27l-0.01 0 -0.01 -0.54zm0.01 -0.77l-0.98 -0 0.99 -2.25 1.4 0 0 0.54 -1.05 -0 -0.52 1.18 0.16 0 0 0.54zm1.41 -2.25l0.01 -0c0.1,-0 0.2,-0.04 0.27,-0.11 0.07,-0.07 0.11,-0.17 0.11,-0.27 0,-0.11 -0.04,-0.2 -0.11,-0.27 -0.07,-0.07 -0.17,-0.11 -0.27,-0.11l0 -0.54c0.26,0 0.49,0.1 0.65,0.27 0.17,0.17 0.27,0.4 0.27,0.65 -0,0.25 -0.1,0.48 -0.27,0.65 -0.16,0.17 -0.39,0.27 -0.64,0.27l-0.01 0 -0.01 -0.54zm0.01 -0.77l-1.07 -0 0.96 -2.18 1.45 0 0 0.54 -1.1 -0 -0.49 1.11 0.25 0 0 0.54zm1.33 -2.18l0.01 -0c0.1,-0 0.2,-0.04 0.27,-0.11 0.07,-0.07 0.11,-0.17 0.11,-0.27 0,-0.11 -0.04,-0.2 -0.11,-0.27 -0.07,-0.07 -0.17,-0.11 -0.27,-0.11l0 -0.54c0.26,0 0.49,0.1 0.65,0.27 0.17,0.17 0.27,0.4 0.27,0.65 -0,0.25 -0.1,0.48 -0.27,0.65 -0.16,0.17 -0.39,0.27 -0.64,0.27l-0.01 0 -0.01 -0.54zm0.01 -0.77l-1.11 -0 0.96 -2.19 0.99 0 0 0.54 -0.64 -0 -0.49 1.11 0.29 0 0 0.54zm0.83 -2.19l0.01 -0c0.1,-0 0.2,-0.05 0.27,-0.12 0.07,-0.07 0.11,-0.16 0.11,-0.27 0,-0.11 -0.04,-0.2 -0.11,-0.27 -0.07,-0.07 -0.17,-0.11 -0.27,-0.11l0 -0.54c0.26,0 0.49,0.1 0.65,0.27 0.17,0.17 0.27,0.4 0.27,0.65 -0,0.25 -0.1,0.48 -0.27,0.65l0 0c-0.16,0.17 -0.39,0.27 -0.64,0.27l-0.01 0 -0.01 -0.54zm-10.7 -0.03l10.14 0.03 0 0.54 -10.14 -0.03 0 -0.54zm8.68 3.52l-7.27 -0.02 0 -0.54 7.27 0.02 0 0.54zm-6.04 2.4l4.93 0.01 0 0.54 -4.93 -0.01 0 -0.54zm3.52 3.57l-2.62 -0.01 0 -0.54 2.62 0.01 0 0.54z"/>
 </g>
</svg>
