<?xml version="1.0" encoding="UTF-8"?>
<!DOCTYPE svg PUBLIC "-//W3C//DTD SVG 1.1//EN" "http://www.w3.org/Graphics/SVG/1.1/DTD/svg11.dtd">
<!-- Creator: CorelDRAW -->
<svg xmlns="http://www.w3.org/2000/svg" xml:space="preserve" width="16.053mm" height="15.6872mm" version="1.1" style="shape-rendering:geometricPrecision; text-rendering:geometricPrecision; image-rendering:optimizeQuality; fill-rule:evenodd; clip-rule:evenodd"
viewBox="0 0 31.36 30.65"
 xmlns:xlink="http://www.w3.org/1999/xlink"
 xmlns:xodm="http://www.corel.com/coreldraw/odm/2003">
 <defs>
  <style type="text/css">
   <![CDATA[
    .fil0 {fill:#FEFEFE;fill-rule:nonzero}
   ]]>
  </style>
 </defs>
 <g id="Camada_x0020_1">
  <metadata id="CorelCorpID_0Corel-Layer"/>
  <path class="fil0" d="M12.61 5.28c-0.22,0.03 -0.43,-0.13 -0.45,-0.36 -0.03,-0.22 0.13,-0.43 0.36,-0.45 1.24,-0.15 2.38,-0.44 3.42,-0.93 0.55,-0.26 1.08,-0.59 1.57,-0.99 -0.5,0.1 -1,0.16 -1.51,0.16l-0.62 0c-0.64,-0.01 -1.27,-0.09 -1.89,-0.25 -0.61,-0.16 -1.2,-0.39 -1.76,-0.71 -0.75,-0.42 -1.56,-0.71 -2.38,-0.85 -0.79,-0.13 -1.61,-0.13 -2.43,0.03 -0.94,0.19 -1.89,0.46 -2.74,0.89 -0.83,0.42 -1.56,0.99 -2.1,1.78 -0.93,1.38 -1.32,3.09 -1.25,4.8 0.07,1.83 0.66,3.65 1.65,5.07 0.25,0.36 0.39,0.77 0.46,1.19 0.07,0.4 0.07,0.81 0.04,1.21 -0.04,0.54 -0.06,1.05 -0.07,1.55 -0.01,0.51 -0,1.02 0.02,1.55 0.03,0.65 0.07,1.3 0.14,1.95 0.07,0.65 0.16,1.29 0.29,1.92 0.22,1.08 0.54,2.16 1.02,3.15 0.47,0.98 1.09,1.88 1.91,2.61 0.2,0.18 0.41,0.35 0.64,0.51 0.22,0.16 0.46,0.31 0.69,0.44 0.05,0.03 0.1,0.05 0.16,0.08 0.53,0.25 1.08,0.24 1.57,0.05 0.5,-0.2 0.93,-0.59 1.22,-1.1 0.03,-0.06 0.07,-0.12 0.1,-0.19 0.36,-0.78 0.44,-1.68 0.52,-2.58l0.01 -0.16 0 0c0.1,-1.14 0.35,-2.24 0.91,-3.11 0.58,-0.9 1.47,-1.54 2.83,-1.68 0.07,-0.01 0.15,-0.01 0.23,-0.02l0 0c0.07,-0 0.14,-0 0.22,-0 0.06,-0 0.12,0 0.17,0l0.14 0.01 0.14 -0.01c0.05,-0 0.11,-0 0.17,-0 0.08,-0 0.15,-0 0.22,0l0 0c0.08,0 0.15,0.01 0.23,0.02 1.36,0.14 2.25,0.78 2.83,1.68 0.56,0.87 0.81,1.97 0.91,3.11l0 0 0.01 0.16c0.08,0.89 0.16,1.8 0.52,2.58 0.03,0.07 0.07,0.14 0.1,0.19 0.29,0.52 0.72,0.91 1.22,1.1 0.48,0.19 1.03,0.2 1.57,-0.05 0.06,-0.03 0.11,-0.05 0.16,-0.08 0.24,-0.13 0.47,-0.28 0.69,-0.44 0.22,-0.16 0.44,-0.33 0.64,-0.51 0.82,-0.73 1.44,-1.63 1.91,-2.61 0.48,-0.99 0.8,-2.07 1.02,-3.15 0.13,-0.63 0.22,-1.27 0.29,-1.92 0.07,-0.65 0.11,-1.3 0.14,-1.95 0.02,-0.53 0.03,-1.04 0.02,-1.55 -0.01,-0.5 -0.03,-1.01 -0.07,-1.55 -0.03,-0.4 -0.03,-0.81 0.04,-1.21 0.07,-0.42 0.21,-0.83 0.46,-1.19 0.99,-1.42 1.58,-3.24 1.65,-5.07 0.07,-1.71 -0.32,-3.42 -1.25,-4.8 -0.53,-0.79 -1.27,-1.36 -2.09,-1.78 -0.85,-0.43 -1.8,-0.7 -2.74,-0.89 -0.82,-0.16 -1.63,-0.17 -2.43,-0.03 -0.83,0.14 -1.63,0.43 -2.38,0.85 -0.12,0.06 -0.23,0.13 -0.35,0.18 -0.89,1.05 -1.9,1.8 -3.01,2.33 -1.13,0.54 -2.35,0.85 -3.67,1.01zm14.95 -4.18c0.95,0.48 1.79,1.14 2.41,2.05 1.03,1.53 1.46,3.41 1.39,5.29 -0.08,1.98 -0.72,3.96 -1.8,5.51 -0.17,0.25 -0.27,0.54 -0.32,0.85 -0.05,0.33 -0.05,0.68 -0.03,1.02 0.04,0.53 0.06,1.05 0.07,1.59 0.01,0.53 0,1.05 -0.02,1.59 -0.03,0.67 -0.07,1.34 -0.14,2 -0.07,0.66 -0.17,1.33 -0.3,1.99 -0.23,1.14 -0.57,2.28 -1.08,3.34 -0.51,1.07 -1.2,2.06 -2.1,2.87 -0.23,0.2 -0.46,0.39 -0.71,0.57 -0.25,0.18 -0.5,0.34 -0.77,0.49 -0.07,0.04 -0.15,0.08 -0.21,0.11 -0.75,0.35 -1.52,0.34 -2.21,0.07 -0.67,-0.26 -1.25,-0.78 -1.63,-1.47 -0.05,-0.08 -0.09,-0.17 -0.13,-0.25 -0.42,-0.91 -0.51,-1.89 -0.59,-2.85l-0.01 -0.16 0 -0c-0.09,-1.02 -0.31,-1.99 -0.78,-2.74 -0.45,-0.7 -1.15,-1.2 -2.23,-1.31 -0.06,-0.01 -0.12,-0.01 -0.18,-0.01 -0.06,-0 -0.12,-0 -0.18,-0l-0.01 0c-0.04,-0 -0.08,0 -0.13,0l-0.14 0.01 -0.06 0 -0.14 -0.01c-0.05,-0 -0.09,-0 -0.13,-0l-0.01 0c-0.06,-0 -0.12,-0 -0.18,0 -0.06,0 -0.12,0.01 -0.18,0.01 -1.07,0.11 -1.77,0.61 -2.23,1.31 -0.48,0.74 -0.69,1.72 -0.78,2.74l0 0 -0.01 0.16c-0.08,0.96 -0.17,1.94 -0.59,2.85 -0.04,0.08 -0.08,0.16 -0.13,0.25 -0.38,0.68 -0.96,1.2 -1.63,1.47 -0.68,0.27 -1.46,0.28 -2.21,-0.07 -0.07,-0.03 -0.14,-0.07 -0.21,-0.11 -0.27,-0.15 -0.53,-0.31 -0.77,-0.49 -0.24,-0.17 -0.48,-0.36 -0.71,-0.57 -0.9,-0.81 -1.59,-1.8 -2.1,-2.87 -0.51,-1.06 -0.85,-2.2 -1.08,-3.34 -0.13,-0.67 -0.23,-1.33 -0.3,-1.99 -0.07,-0.66 -0.12,-1.33 -0.14,-2 -0.02,-0.54 -0.03,-1.06 -0.02,-1.59 0.01,-0.54 0.03,-1.06 0.07,-1.59 0.02,-0.34 0.02,-0.7 -0.03,-1.02 -0.05,-0.31 -0.15,-0.6 -0.32,-0.85 -1.08,-1.55 -1.72,-3.53 -1.8,-5.51 -0.07,-1.87 0.36,-3.76 1.39,-5.29 0.62,-0.92 1.46,-1.57 2.41,-2.05 0.93,-0.47 1.95,-0.76 2.95,-0.96 0.91,-0.18 1.83,-0.19 2.72,-0.04 0.92,0.15 1.81,0.48 2.64,0.94 0.5,0.28 1.03,0.49 1.57,0.63 0.55,0.15 1.12,0.22 1.69,0.23l0.61 0c0.57,-0 1.14,-0.08 1.69,-0.22 0.54,-0.14 1.07,-0.35 1.57,-0.63 0.84,-0.46 1.73,-0.78 2.64,-0.94 0.89,-0.15 1.81,-0.15 2.72,0.04 1,0.2 2.02,0.49 2.95,0.96zm-8.19 11.17l-2.02 0c-0.17,0 -0.33,-0.07 -0.44,-0.18 -0.11,-0.11 -0.18,-0.27 -0.18,-0.44l0 -2.02 -2.09 0 0 2.02c0,0.17 -0.07,0.33 -0.18,0.44 -0.11,0.11 -0.27,0.18 -0.44,0.18l-2.02 0 0 2.09 2.02 0c0.17,0 0.33,0.07 0.44,0.18 0.11,0.11 0.18,0.27 0.18,0.44l0 2.02 2.09 0 0 -2.02c0,-0.17 0.07,-0.33 0.18,-0.44 0.11,-0.11 0.27,-0.18 0.44,-0.18l2.02 0 0 -2.09zm-1.83 -0.82l2.02 0c0.17,0 0.33,0.07 0.44,0.18l0 0c0.11,0.11 0.18,0.27 0.18,0.44l0 2.48c0,0.17 -0.07,0.33 -0.18,0.44l-0 0c-0.11,0.11 -0.27,0.18 -0.44,0.18l-2.02 0 0 2.02c0,0.17 -0.07,0.33 -0.18,0.44l-0 0c-0.11,0.11 -0.27,0.18 -0.44,0.18l-2.48 0c-0.17,0 -0.33,-0.07 -0.44,-0.18 -0.11,-0.11 -0.18,-0.27 -0.18,-0.44l0 -2.02 -2.02 0c-0.17,0 -0.33,-0.07 -0.44,-0.18l-0 -0c-0.11,-0.11 -0.18,-0.27 -0.18,-0.44l0 -2.48c0,-0.17 0.07,-0.33 0.18,-0.44 0.11,-0.11 0.27,-0.18 0.44,-0.18l2.02 0 0 -2.02c0,-0.17 0.07,-0.33 0.18,-0.44 0.11,-0.11 0.27,-0.18 0.44,-0.18l2.48 0c0.17,0 0.33,0.07 0.44,0.18l0 0c0.11,0.11 0.18,0.27 0.18,0.44l0 2.02z"/>
 </g>
</svg>
