<?xml version="1.0" encoding="UTF-8"?>
<!DOCTYPE svg PUBLIC "-//W3C//DTD SVG 1.1//EN" "http://www.w3.org/Graphics/SVG/1.1/DTD/svg11.dtd">
<!-- Creator: CorelDRAW -->
<svg xmlns="http://www.w3.org/2000/svg" xml:space="preserve" width="19.2022mm" height="15.033mm" version="1.1" style="shape-rendering:geometricPrecision; text-rendering:geometricPrecision; image-rendering:optimizeQuality; fill-rule:evenodd; clip-rule:evenodd"
viewBox="0 0 44.7 35"
 xmlns:xlink="http://www.w3.org/1999/xlink"
 xmlns:xodm="http://www.corel.com/coreldraw/odm/2003">
 <defs>
  <style type="text/css">
   <![CDATA[
    .fil0 {fill:#FEFEFE;fill-rule:nonzero}
   ]]>
  </style>
 </defs>
 <g id="Camada_x0020_1">
  <metadata id="CorelCorpID_0Corel-Layer"/>
  <path class="fil0" d="M25 18.06l-4.49 0c-0.28,0 -0.53,-0.11 -0.72,-0.3 -0.18,-0.18 -0.3,-0.44 -0.3,-0.72l0 -1.75c-4.39,0.12 -8.36,0.5 -11.52,1.06 0.04,0.14 0.07,0.27 0.09,0.41 0.07,0.45 0.08,0.92 0.05,1.37 -0.04,0.62 -0.07,1.2 -0.08,1.78 -0.01,0.58 -0,1.17 0.02,1.78 0.03,0.74 0.08,1.49 0.16,2.24 0.08,0.75 0.19,1.48 0.34,2.21 0.25,1.24 0.62,2.49 1.17,3.63 0.54,1.13 1.26,2.17 2.2,3.02 0.23,0.21 0.48,0.4 0.74,0.59 0.26,0.18 0.53,0.35 0.8,0.51 0.06,0.03 0.12,0.06 0.19,0.09 0.63,0.29 1.28,0.28 1.85,0.06 0.59,-0.23 1.1,-0.69 1.44,-1.3 0.04,-0.07 0.08,-0.15 0.11,-0.23 0.42,-0.9 0.51,-1.95 0.6,-2.98l0.02 -0.18 0 0c0.12,-1.29 0.4,-2.55 1.03,-3.53 0.65,-1.02 1.66,-1.74 3.19,-1.9 0.08,-0.01 0.17,-0.01 0.26,-0.02 0.08,-0 0.16,-0 0.25,-0 0.07,-0 0.13,0 0.2,0l0.16 0.01 0.16 -0.01c0.06,-0 0.13,-0 0.2,-0 0.09,-0 0.17,-0 0.25,0 0.09,0 0.17,0.01 0.26,0.02 1.53,0.16 2.54,0.88 3.19,1.9 0.63,0.98 0.92,2.24 1.03,3.53l0 0 0.02 0.18c0.09,1.03 0.18,2.08 0.6,2.98 0.04,0.08 0.08,0.16 0.11,0.23 0.34,0.61 0.85,1.07 1.44,1.3 0.57,0.23 1.22,0.23 1.85,-0.06 0.07,-0.03 0.13,-0.06 0.19,-0.09 0.27,-0.15 0.54,-0.32 0.8,-0.51 0.26,-0.18 0.51,-0.38 0.74,-0.59 0.94,-0.85 1.66,-1.88 2.2,-3.02 0.55,-1.14 0.92,-2.39 1.17,-3.63 0.15,-0.72 0.26,-1.46 0.34,-2.21 0.08,-0.75 0.13,-1.5 0.16,-2.24 0.02,-0.61 0.03,-1.19 0.02,-1.78 -0.01,-0.57 -0.04,-1.16 -0.08,-1.78 -0.03,-0.45 -0.03,-0.92 0.05,-1.37 0.01,-0.09 0.03,-0.18 0.05,-0.27 -3.09,-0.61 -7.06,-1.03 -11.48,-1.18l0 1.73c0,0.28 -0.11,0.53 -0.3,0.72 -0.18,0.18 -0.44,0.3 -0.72,0.3zm-4.49 -0.79l4.49 0c0.06,0 0.12,-0.02 0.16,-0.06 0.04,-0.04 0.07,-0.1 0.07,-0.16l0 -1.75c-0.94,-0.03 -1.9,-0.04 -2.87,-0.04 -0.7,0 -1.39,0.01 -2.07,0.02l0 1.77c0,0.06 0.02,0.12 0.06,0.16 0.04,0.04 0.1,0.06 0.16,0.06zm-1.02 -2.77l0 -1.83c0,-0.28 0.11,-0.53 0.3,-0.72 0.18,-0.18 0.44,-0.3 0.72,-0.3l4.49 0c0.28,0 0.53,0.11 0.72,0.3 0.18,0.18 0.3,0.44 0.3,0.72l0 1.85c4.53,0.16 8.6,0.59 11.76,1.22 0.06,-0.11 0.12,-0.21 0.19,-0.31 1.14,-1.64 1.82,-3.74 1.9,-5.85 0.08,-1.98 -0.37,-3.95 -1.45,-5.55 -0.62,-0.92 -1.47,-1.58 -2.43,-2.07 -0.98,-0.5 -2.08,-0.81 -3.16,-1.03 -0.95,-0.19 -1.89,-0.19 -2.81,-0.04 -0.87,0.15 -1.72,0.44 -2.53,0.86l0 0c-1.07,1.13 -2.28,1.98 -3.59,2.57 -1.39,0.62 -2.89,0.96 -4.45,1.05l-0.05 -0.79c1.47,-0.09 2.87,-0.4 4.17,-0.99 0.56,-0.25 1.1,-0.55 1.62,-0.91 -0.68,0.17 -1.38,0.26 -2.08,0.27l-0.71 0c-0.72,-0.01 -1.45,-0.1 -2.15,-0.28 -0.69,-0.18 -1.37,-0.45 -2,-0.8 -0.87,-0.48 -1.8,-0.82 -2.75,-0.98 -0.92,-0.16 -1.86,-0.15 -2.81,0.04 -1.08,0.21 -2.18,0.53 -3.16,1.03 -0.96,0.49 -1.81,1.15 -2.43,2.07 -1.08,1.6 -1.53,3.57 -1.45,5.55 0.08,2.11 0.76,4.21 1.9,5.85 0.04,0.06 0.08,0.11 0.11,0.17 3.24,-0.59 7.32,-0.99 11.83,-1.11zm0.79 -1.83l0 1.81c0.68,-0.01 1.37,-0.02 2.07,-0.02 0.97,0 1.93,0.01 2.87,0.04l0 -1.83c0,-0.06 -0.02,-0.12 -0.07,-0.16 -0.04,-0.04 -0.1,-0.06 -0.16,-0.06l-4.49 0c-0.06,0 -0.12,0.02 -0.16,0.06 -0.04,0.04 -0.06,0.1 -0.06,0.16zm16.05 -11.41c1.07,0.54 2.03,1.29 2.73,2.33 1.18,1.74 1.67,3.89 1.58,6.02 -0.09,2.26 -0.82,4.51 -2.05,6.28l-0.02 0.03c3.8,0.84 6.12,2.04 6.12,3.42 0,0.77 -0.67,1.47 -1.88,2.07 -1.1,0.54 -2.68,1.03 -4.63,1.44 -0.03,0.39 -0.06,0.79 -0.1,1.18 -0.08,0.76 -0.19,1.52 -0.35,2.28 -0.26,1.3 -0.66,2.61 -1.23,3.82 -0.59,1.22 -1.36,2.34 -2.39,3.27 -0.26,0.23 -0.53,0.45 -0.8,0.64 -0.28,0.2 -0.57,0.38 -0.88,0.55 -0.08,0.05 -0.16,0.09 -0.24,0.12 -0.84,0.39 -1.71,0.38 -2.47,0.08 -0.75,-0.3 -1.41,-0.88 -1.84,-1.65 -0.05,-0.09 -0.1,-0.19 -0.14,-0.28 -0.47,-1.03 -0.57,-2.15 -0.67,-3.24l-0.02 -0.18 0 0c-0.1,-1.18 -0.36,-2.31 -0.91,-3.17 -0.53,-0.82 -1.35,-1.41 -2.61,-1.54 -0.07,-0.01 -0.14,-0.01 -0.21,-0.02 -0.07,-0 -0.14,-0 -0.21,-0l-0.01 0c-0.05,-0 -0.1,0 -0.15,0l-0.17 0.01 -0.06 0 -0.17 -0.01c-0.05,-0 -0.11,-0 -0.15,-0l-0.01 0c-0.07,-0 -0.14,-0 -0.21,0 -0.07,0 -0.14,0.01 -0.21,0.02 -1.26,0.13 -2.08,0.71 -2.61,1.54 -0.55,0.86 -0.81,1.99 -0.91,3.17l0 0 -0.02 0.18c-0.1,1.09 -0.19,2.21 -0.67,3.24 -0.04,0.09 -0.09,0.19 -0.14,0.28 -0.43,0.77 -1.08,1.35 -1.84,1.65 -0.77,0.3 -1.63,0.31 -2.47,-0.08 -0.08,-0.03 -0.16,-0.08 -0.24,-0.12 -0.3,-0.17 -0.6,-0.35 -0.88,-0.55 -0.28,-0.2 -0.55,-0.41 -0.8,-0.64 -1.03,-0.92 -1.81,-2.04 -2.39,-3.27 -0.58,-1.21 -0.97,-2.51 -1.23,-3.82 -0.15,-0.76 -0.27,-1.52 -0.35,-2.28 -0.04,-0.34 -0.07,-0.68 -0.09,-1.02 -2.18,-0.41 -3.96,-0.92 -5.2,-1.48 -1.37,-0.63 -2.13,-1.36 -2.13,-2.18 0,-1.45 2.58,-2.7 6.75,-3.55l0.07 -0.01c-1.18,-1.75 -1.88,-3.95 -1.96,-6.16 -0.08,-2.14 0.41,-4.28 1.58,-6.02 0.7,-1.04 1.66,-1.79 2.73,-2.33 1.05,-0.53 2.22,-0.87 3.36,-1.1 1.04,-0.21 2.08,-0.21 3.09,-0.04 1.04,0.18 2.06,0.54 3.01,1.07 0.58,0.32 1.19,0.56 1.82,0.73 0.64,0.17 1.3,0.25 1.95,0.26l0.35 -0 0.35 0c0.66,-0.01 1.31,-0.09 1.95,-0.26 0.63,-0.16 1.24,-0.41 1.82,-0.73 0.95,-0.53 1.96,-0.89 3.01,-1.07 1.01,-0.17 2.05,-0.17 3.09,0.04 1.14,0.23 2.31,0.56 3.36,1.1zm-29.06 15.63c-0.02,-0.13 -0.05,-0.27 -0.09,-0.39l-0.28 0.06c-3.78,0.77 -6.11,1.76 -6.11,2.78 0,0.48 0.6,0.98 1.67,1.46 1.15,0.52 2.79,0.99 4.82,1.39l-0.02 -0.46c-0.02,-0.62 -0.03,-1.22 -0.02,-1.82 0.01,-0.61 0.04,-1.21 0.08,-1.82 0.03,-0.4 0.03,-0.81 -0.04,-1.19zm30.96 4.83l-0.01 0.3c1.79,-0.39 3.23,-0.84 4.23,-1.33 0.93,-0.46 1.44,-0.92 1.44,-1.36 0,-0.98 -2.14,-1.92 -5.64,-2.68 -0.02,0.08 -0.03,0.16 -0.05,0.24 -0.06,0.38 -0.06,0.79 -0.04,1.19 0.04,0.61 0.07,1.21 0.08,1.82 0.01,0.6 0,1.2 -0.02,1.82z"/>
 </g>
</svg>
