<?xml version="1.0" encoding="UTF-8"?>
<!DOCTYPE svg PUBLIC "-//W3C//DTD SVG 1.1//EN" "http://www.w3.org/Graphics/SVG/1.1/DTD/svg11.dtd">
<!-- Creator: CorelDRAW -->
<svg xmlns="http://www.w3.org/2000/svg" xml:space="preserve" width="76.5646mm" height="14.3311mm" version="1.1" style="shape-rendering:geometricPrecision; text-rendering:geometricPrecision; image-rendering:optimizeQuality; fill-rule:evenodd; clip-rule:evenodd"
viewBox="0 0 547.16 102.42"
 xmlns:xlink="http://www.w3.org/1999/xlink"
 xmlns:xodm="http://www.corel.com/coreldraw/odm/2003">
 <defs>
  <style type="text/css">
   <![CDATA[
    .fil0 {fill:#0074BB;fill-rule:nonzero}
   ]]>
  </style>
 </defs>
 <g id="Camada_x0020_1">
  <metadata id="CorelCorpID_0Corel-Layer"/>
  <g id="_2726565112752">
   <path class="fil0" d="M10.41 51.29l-10.41 -23.66 3.65 0 9.56 21.83 -2.1 0 9.63 -21.83 3.38 0 -10.38 23.66 -3.35 0zm20.73 0.2c-1.91,0 -3.6,-0.4 -5.05,-1.18 -1.45,-0.79 -2.58,-1.87 -3.38,-3.24 -0.8,-1.37 -1.2,-2.95 -1.2,-4.73 0,-1.78 0.39,-3.36 1.17,-4.73 0.78,-1.37 1.85,-2.45 3.21,-3.23 1.36,-0.78 2.9,-1.17 4.61,-1.17 1.73,0 3.27,0.38 4.6,1.15 1.33,0.77 2.37,1.84 3.13,3.23 0.75,1.38 1.13,3 1.13,4.85 0,0.14 -0.01,0.29 -0.02,0.47 -0.01,0.18 -0.03,0.35 -0.05,0.51l-15.24 0 0 -2.33 13.55 0 -1.32 0.81c0.02,-1.15 -0.21,-2.17 -0.71,-3.08 -0.5,-0.9 -1.18,-1.61 -2.04,-2.11 -0.87,-0.51 -1.88,-0.76 -3.02,-0.76 -1.13,0 -2.13,0.25 -3.01,0.76 -0.88,0.51 -1.57,1.22 -2.06,2.13 -0.5,0.91 -0.74,1.95 -0.74,3.13l0 0.54c0,1.19 0.28,2.26 0.83,3.19 0.55,0.94 1.32,1.66 2.31,2.18 0.99,0.52 2.13,0.78 3.41,0.78 1.06,0 2.02,-0.18 2.89,-0.54 0.87,-0.36 1.63,-0.9 2.28,-1.62l1.79 2.09c-0.81,0.95 -1.82,1.67 -3.02,2.16 -1.21,0.5 -2.55,0.74 -4.04,0.74zm32.96 -18.28c1.44,0 2.71,0.28 3.82,0.84 1.1,0.56 1.97,1.42 2.58,2.57 0.62,1.15 0.93,2.6 0.93,4.36l0 10.31 -3.24 0 0 -9.94c0,-1.74 -0.41,-3.04 -1.22,-3.92 -0.81,-0.88 -1.95,-1.32 -3.41,-1.32 -1.08,0 -2.03,0.23 -2.84,0.68 -0.81,0.45 -1.44,1.12 -1.88,1.99 -0.44,0.88 -0.66,1.97 -0.66,3.28l0 9.23 -3.24 0 0 -9.94c0,-1.74 -0.4,-3.04 -1.2,-3.92 -0.8,-0.88 -1.94,-1.32 -3.43,-1.32 -1.06,0 -1.99,0.23 -2.81,0.68 -0.81,0.45 -1.44,1.12 -1.89,1.99 -0.45,0.88 -0.68,1.97 -0.68,3.28l0 9.23 -3.24 0 0 -17.91 3.11 0 0 4.77 -0.51 -1.22c0.56,-1.17 1.43,-2.08 2.6,-2.74 1.17,-0.65 2.53,-0.98 4.09,-0.98 1.71,0 3.19,0.42 4.43,1.27 1.24,0.84 2.05,2.12 2.43,3.84l-1.32 -0.54c0.54,-1.37 1.49,-2.48 2.84,-3.31 1.35,-0.83 2.93,-1.25 4.73,-1.25z"/>
   <path class="fil0" d="M113.96 29.95c0,-1.46 0.55,-2.64 1.65,-3.53 1.1,-0.89 2.38,-1.18 3.84,-0.86 -0.52,-3.87 -1.83,-6.93 -3.92,-9.17 -2.09,-2.25 -4.65,-3.27 -7.68,-3.06 -3.14,0.1 -5.49,1.28 -7.06,3.53 -1.57,2.25 -2.4,4.89 -2.51,7.92 -0.11,3.14 0.39,6.04 1.49,8.7 1.1,2.67 2.43,5.23 4,7.68 1.57,2.46 3.29,4.89 5.17,7.29 1.88,2.4 3.63,4.94 5.25,7.61 1.62,2.67 2.98,5.57 4.08,8.7 1.1,3.14 1.65,6.59 1.65,10.35 0,4.7 -0.84,8.78 -2.48,12.23 -1.67,3.45 -3.82,6.32 -6.46,8.62 -2.64,2.3 -5.62,3.97 -8.97,5.02 -3.32,1.04 -6.61,1.52 -9.85,1.41 -2.93,-0.11 -5.72,-0.65 -8.39,-1.65 -2.67,-0.99 -4.99,-2.46 -6.98,-4.39 -1.99,-1.93 -3.5,-4.34 -4.55,-7.21 -1.05,-2.87 -1.41,-6.19 -1.1,-9.96 0.1,-1.88 0.57,-3.92 1.41,-6.12 0.84,-2.2 1.91,-4.21 3.21,-6.04 1.31,-1.83 2.87,-3.37 4.7,-4.63 1.83,-1.25 3.79,-1.93 5.88,-2.04 1.46,-0.21 2.67,0.16 3.61,1.1 0.94,0.94 1.36,2.14 1.25,3.61 0,1.05 -0.34,1.96 -1.02,2.74 -0.68,0.78 -1.75,1.18 -3.21,1.18 -1.15,0 -2.09,-0.34 -2.82,-1.02 -0.73,-0.68 -1.2,-1.54 -1.41,-2.59 -2.51,1.46 -4.42,3.48 -5.72,6.04 -1.31,2.56 -2.07,5.2 -2.27,7.92 -0.1,2.82 0.26,5.33 1.1,7.53 0.84,2.2 1.96,4.05 3.37,5.57 1.41,1.52 3.03,2.69 4.86,3.53 1.83,0.84 3.68,1.25 5.57,1.25 1.78,0 3.48,-0.42 5.1,-1.25 1.62,-0.84 3.06,-2.06 4.31,-3.69 1.25,-1.62 2.2,-3.71 2.82,-6.27 0.63,-2.56 0.84,-5.62 0.63,-9.17 -0.21,-3.35 -0.94,-6.4 -2.2,-9.17 -1.25,-2.77 -2.72,-5.41 -4.39,-7.92 -1.67,-2.51 -3.45,-4.94 -5.33,-7.29 -1.88,-2.35 -3.55,-4.84 -5.02,-7.45 -1.46,-2.61 -2.61,-5.41 -3.45,-8.39 -0.84,-2.98 -1.05,-6.3 -0.63,-9.96 0.31,-3.03 1.15,-5.75 2.51,-8.15 1.36,-2.4 3.08,-4.44 5.17,-6.12 2.09,-1.67 4.47,-2.98 7.14,-3.92 2.67,-0.94 5.46,-1.46 8.36,-1.57 3.24,-0.1 6.09,0.44 8.57,1.65 2.48,1.2 4.57,2.72 6.22,4.55 1.67,1.83 2.95,3.87 3.82,6.12 0.89,2.25 1.39,4.36 1.49,6.35 0.1,2.4 -0.39,4.42 -1.49,6.04 -1.1,1.62 -2.74,2.54 -4.94,2.74 -1.15,0.11 -2.17,-0.31 -3.06,-1.25 -0.89,-0.94 -1.33,-1.99 -1.33,-3.14zm74.49 5.65c-0.52,1.88 -1.23,4.18 -2.12,6.9 -0.89,2.72 -1.93,5.54 -3.14,8.47 -1.2,2.93 -2.59,5.83 -4.16,8.7 -1.57,2.87 -3.27,5.46 -5.1,7.76 -1.83,2.3 -3.79,4.18 -5.88,5.65 -2.09,1.46 -4.34,2.19 -6.74,2.19 -2.4,0 -4.44,-0.57 -6.12,-1.72 -2.4,1.36 -5.02,2.09 -7.84,2.2 -3.55,0.21 -6.64,-0.37 -9.25,-1.73 -2.61,-1.36 -4.78,-3.24 -6.51,-5.7 -1.72,-2.46 -2.98,-5.23 -3.76,-8.28 -0.78,-3.08 -1.02,-6.25 -0.71,-9.46 0.31,-3.97 1.25,-7.68 2.82,-11.19 1.57,-3.5 3.63,-6.56 6.19,-9.23 2.56,-2.67 5.57,-4.73 9.02,-6.25 3.45,-1.52 7.21,-2.27 11.29,-2.27 3.66,0 6.66,0.63 9.02,1.88 2.35,1.25 4.16,2.9 5.41,4.99 1.25,2.09 2.01,4.6 2.27,7.5 0.26,2.93 0.18,6.01 -0.24,9.23 -0.31,2.09 -0.84,4.31 -1.57,6.64 -0.73,2.35 -1.65,4.65 -2.74,6.87 -1.1,2.25 -2.38,4.37 -3.84,6.35 -1.46,1.96 -3.14,3.74 -5.02,5.31 0.63,0.21 1.36,0.42 2.2,0.63 1.88,0.1 3.74,-0.52 5.57,-1.88 1.83,-1.36 3.53,-3.11 5.1,-5.25 1.57,-2.14 3.03,-4.6 4.39,-7.37 1.36,-2.77 2.59,-5.51 3.68,-8.23 1.1,-2.72 2.04,-5.28 2.82,-7.68 0.78,-2.4 1.38,-4.34 1.8,-5.8l3.14 0.78zm-35.75 35.13c-0.63,-1.46 -0.86,-3.06 -0.71,-4.78 0.16,-1.72 0.65,-3.32 1.49,-4.78 0.84,-1.46 1.99,-2.64 3.45,-3.53 1.46,-0.89 3.19,-1.23 5.17,-1.02 1.15,-2.93 2.09,-5.78 2.82,-8.55 0.73,-2.77 1.2,-5.04 1.41,-6.82 0.1,-1.15 0.13,-2.67 0.08,-4.55 -0.05,-1.88 -0.31,-3.69 -0.78,-5.41 -0.47,-1.73 -1.2,-3.21 -2.2,-4.47 -0.99,-1.25 -2.38,-1.88 -4.16,-1.88 -2.51,0.1 -4.73,1.65 -6.66,4.63 -1.93,2.98 -3.61,6.46 -5.02,10.43 -1.41,3.97 -2.51,7.89 -3.29,11.76 -0.78,3.87 -1.28,6.74 -1.49,8.62 -0.1,0.94 -0.18,2.14 -0.24,3.61 -0.05,1.46 0.03,2.87 0.24,4.23 0.21,1.36 0.65,2.51 1.33,3.45 0.68,0.94 1.7,1.36 3.06,1.25 1.99,-0.1 3.82,-0.84 5.49,-2.2zm85.15 -35.13c-0.52,1.88 -1.23,4.16 -2.12,6.82 -0.89,2.67 -1.96,5.46 -3.21,8.39 -1.25,2.93 -2.67,5.88 -4.23,8.86 -1.57,2.98 -3.27,5.64 -5.1,8 -1.83,2.35 -3.82,4.23 -5.96,5.65 -2.14,1.41 -4.42,2.12 -6.82,2.12 -3.01,0 -5.38,-0.78 -7.14,-2.35 -1.75,-1.57 -3.14,-3.53 -4.1,-5.88 -0.99,-2.35 -1.62,-4.89 -1.93,-7.61 -0.31,-2.72 -0.47,-5.23 -0.47,-7.53 0.11,-4.39 0.5,-8.7 1.15,-12.94 0.68,-4.23 1.33,-7.87 1.96,-10.9 -2.9,-0.42 -6.04,-1.25 -9.38,-2.51 -0.42,2.4 -0.86,4.6 -1.33,6.59 -0.47,1.99 -0.86,3.45 -1.18,4.39l-3.14 -0.94c0.31,-0.94 0.71,-2.48 1.18,-4.63 0.47,-2.14 0.91,-4.42 1.33,-6.82 -3.66,-1.99 -6.4,-4.39 -8.23,-7.21 -1.83,-2.82 -2.69,-5.44 -2.59,-7.84 0.11,-2.51 0.97,-4.44 2.59,-5.8 1.62,-1.36 3.37,-1.99 5.25,-1.88 1.25,0.1 2.48,0.55 3.69,1.33 1.2,0.78 2.06,2.06 2.59,3.84 0.73,1.88 1.07,4 1.02,6.35 -0.05,2.35 -0.18,4.57 -0.39,6.66 1.67,0.94 3.69,1.62 6.01,2.04 2.33,0.42 4.78,0.65 7.29,0.71 2.54,0.05 5.07,0.05 7.63,0 2.56,-0.05 4.89,-0.03 6.98,0.08 -0.21,1.15 -0.81,3.55 -1.8,7.21 -0.99,3.66 -2.04,7.79 -3.14,12.39 -1.1,4.6 -2.12,9.2 -3.06,13.8 -0.94,4.6 -1.46,8.36 -1.57,11.29 0,0.73 0.1,1.62 0.31,2.67 0.21,1.05 0.78,1.57 1.72,1.57 1.67,0 3.37,-0.73 5.1,-2.2 1.73,-1.46 3.37,-3.32 4.94,-5.57 1.57,-2.25 3.06,-4.78 4.47,-7.61 1.41,-2.82 2.67,-5.59 3.76,-8.31 1.1,-2.72 2.04,-5.23 2.82,-7.53 0.78,-2.3 1.39,-4.13 1.8,-5.49l3.29 0.78zm-49.71 -17.72c0.21,-1.57 0.29,-3.27 0.24,-5.1 -0.05,-1.83 -0.34,-3.48 -0.86,-4.94 -0.63,-2.09 -1.57,-3.03 -2.82,-2.82 -0.63,0 -1.18,0.31 -1.65,0.94 -0.47,0.63 -0.65,1.57 -0.55,2.82 0.1,1.36 0.57,2.85 1.41,4.47 0.84,1.62 2.25,3.16 4.23,4.63zm99.26 17.72c-0.52,1.88 -1.23,4.16 -2.12,6.82 -0.89,2.67 -1.96,5.46 -3.22,8.39 -1.25,2.93 -2.67,5.88 -4.23,8.86 -1.57,2.98 -3.27,5.64 -5.1,8 -1.83,2.35 -3.82,4.23 -5.96,5.65 -2.14,1.41 -4.42,2.12 -6.82,2.12 -3.01,0 -5.38,-0.78 -7.13,-2.35 -1.75,-1.57 -3.14,-3.53 -4.1,-5.88 -0.99,-2.35 -1.62,-4.89 -1.93,-7.61 -0.31,-2.72 -0.47,-5.23 -0.47,-7.53 0.11,-4.39 0.5,-8.7 1.15,-12.94 0.68,-4.23 1.33,-7.87 1.96,-10.9 -2.9,-0.42 -6.04,-1.25 -9.38,-2.51 -0.42,2.4 -0.86,4.6 -1.33,6.59 -0.47,1.99 -0.86,3.45 -1.18,4.39l-3.14 -0.94c0.31,-0.94 0.71,-2.48 1.18,-4.63 0.47,-2.14 0.91,-4.42 1.33,-6.82 -3.66,-1.99 -6.4,-4.39 -8.23,-7.21 -1.83,-2.82 -2.69,-5.44 -2.59,-7.84 0.11,-2.51 0.97,-4.44 2.59,-5.8 1.62,-1.36 3.37,-1.99 5.25,-1.88 1.25,0.1 2.48,0.55 3.69,1.33 1.2,0.78 2.06,2.06 2.59,3.84 0.73,1.88 1.07,4 1.02,6.35 -0.05,2.35 -0.18,4.57 -0.39,6.66 1.67,0.94 3.69,1.62 6.01,2.04 2.33,0.42 4.78,0.65 7.29,0.71 2.53,0.05 5.07,0.05 7.63,0 2.56,-0.05 4.89,-0.03 6.98,0.08 -0.21,1.15 -0.81,3.55 -1.8,7.21 -0.99,3.66 -2.04,7.79 -3.14,12.39 -1.1,4.6 -2.12,9.2 -3.06,13.8 -0.94,4.6 -1.46,8.36 -1.57,11.29 0,0.73 0.1,1.62 0.31,2.67 0.21,1.05 0.78,1.57 1.73,1.57 1.67,0 3.37,-0.73 5.1,-2.2 1.73,-1.46 3.37,-3.32 4.94,-5.57 1.57,-2.25 3.06,-4.78 4.47,-7.61 1.41,-2.82 2.67,-5.59 3.76,-8.31 1.1,-2.72 2.04,-5.23 2.82,-7.53 0.78,-2.3 1.38,-4.13 1.8,-5.49l3.29 0.78zm-49.71 -17.72c0.21,-1.57 0.29,-3.27 0.24,-5.1 -0.05,-1.83 -0.34,-3.48 -0.86,-4.94 -0.63,-2.09 -1.57,-3.03 -2.82,-2.82 -0.63,0 -1.18,0.31 -1.65,0.94 -0.47,0.63 -0.65,1.57 -0.55,2.82 0.1,1.36 0.58,2.85 1.41,4.47 0.84,1.62 2.25,3.16 4.23,4.63zm85.15 17.72c-0.52,1.88 -1.23,4.16 -2.12,6.82 -0.89,2.67 -1.93,5.46 -3.14,8.39 -1.2,2.93 -2.59,5.88 -4.16,8.86 -1.57,2.98 -3.29,5.64 -5.17,8 -1.88,2.35 -3.89,4.23 -6.04,5.65 -2.14,1.41 -4.36,2.12 -6.66,2.12 -3.03,0 -5.46,-0.78 -7.29,-2.35 -1.83,-1.57 -3.24,-3.53 -4.23,-5.88 -0.99,-2.35 -1.62,-4.89 -1.88,-7.61 -0.26,-2.72 -0.39,-5.23 -0.39,-7.53 0,-3.14 0.18,-6.25 0.55,-9.33 0.37,-3.08 0.78,-5.96 1.25,-8.62 0.47,-2.67 0.94,-5.02 1.41,-7.06 0.47,-2.04 0.81,-3.53 1.02,-4.47l18.19 0c-0.21,1.15 -0.81,3.55 -1.8,7.21 -0.99,3.66 -2.04,7.79 -3.14,12.39 -1.1,4.6 -2.12,9.2 -3.06,13.8 -0.94,4.6 -1.46,8.36 -1.57,11.29 0,0.73 0.13,1.62 0.39,2.67 0.26,1.05 0.86,1.57 1.8,1.57 1.67,0 3.37,-0.73 5.1,-2.2 1.73,-1.46 3.37,-3.32 4.94,-5.57 1.57,-2.25 3.06,-4.78 4.47,-7.61 1.41,-2.82 2.67,-5.59 3.76,-8.31 1.1,-2.72 2.04,-5.23 2.82,-7.53 0.78,-2.3 1.38,-4.13 1.8,-5.49l3.14 0.78zm-25.72 -20.7c-2.09,0 -3.87,-0.73 -5.33,-2.2 -1.46,-1.46 -2.2,-3.24 -2.2,-5.33 0,-2.09 0.73,-3.84 2.2,-5.25 1.46,-1.41 3.24,-2.12 5.33,-2.12 2.09,0 3.84,0.71 5.25,2.12 1.41,1.41 2.12,3.16 2.12,5.25 0,2.09 -0.71,3.87 -2.12,5.33 -1.41,1.46 -3.16,2.2 -5.25,2.2zm75.27 20.7c-0.52,1.88 -1.23,4.16 -2.12,6.82 -0.89,2.67 -1.96,5.46 -3.21,8.39 -1.25,2.93 -2.67,5.88 -4.23,8.86 -1.57,2.98 -3.27,5.64 -5.1,8 -1.83,2.35 -3.82,4.23 -5.96,5.65 -2.14,1.41 -4.42,2.12 -6.82,2.12 -3.01,0 -5.38,-0.78 -7.14,-2.35 -1.75,-1.57 -3.14,-3.53 -4.1,-5.88 -0.99,-2.35 -1.62,-4.89 -1.93,-7.61 -0.31,-2.72 -0.47,-5.23 -0.47,-7.53 0.11,-4.39 0.5,-8.7 1.15,-12.94 0.68,-4.23 1.33,-7.87 1.96,-10.9 -2.9,-0.42 -6.04,-1.25 -9.38,-2.51 -0.42,2.4 -0.86,4.6 -1.33,6.59 -0.47,1.99 -0.86,3.45 -1.18,4.39l-3.14 -0.94c0.31,-0.94 0.71,-2.48 1.18,-4.63 0.47,-2.14 0.91,-4.42 1.33,-6.82 -3.66,-1.99 -6.4,-4.39 -8.23,-7.21 -1.83,-2.82 -2.69,-5.44 -2.59,-7.84 0.11,-2.51 0.97,-4.44 2.59,-5.8 1.62,-1.36 3.37,-1.99 5.25,-1.88 1.25,0.1 2.48,0.55 3.69,1.33 1.2,0.78 2.06,2.06 2.59,3.84 0.73,1.88 1.07,4 1.02,6.35 -0.05,2.35 -0.18,4.57 -0.39,6.66 1.67,0.94 3.69,1.62 6.01,2.04 2.33,0.42 4.78,0.65 7.29,0.71 2.54,0.05 5.07,0.05 7.63,0 2.56,-0.05 4.89,-0.03 6.98,0.08 -0.21,1.15 -0.81,3.55 -1.8,7.21 -0.99,3.66 -2.04,7.79 -3.14,12.39 -1.1,4.6 -2.12,9.2 -3.06,13.8 -0.94,4.6 -1.46,8.36 -1.57,11.29 0,0.73 0.1,1.62 0.31,2.67 0.21,1.05 0.78,1.57 1.73,1.57 1.67,0 3.37,-0.73 5.1,-2.2 1.73,-1.46 3.37,-3.32 4.94,-5.57 1.57,-2.25 3.06,-4.78 4.47,-7.61 1.41,-2.82 2.67,-5.59 3.76,-8.31 1.1,-2.72 2.04,-5.23 2.82,-7.53 0.78,-2.3 1.38,-4.13 1.8,-5.49l3.29 0.78zm-49.71 -17.72c0.21,-1.57 0.29,-3.27 0.24,-5.1 -0.05,-1.83 -0.34,-3.48 -0.86,-4.94 -0.63,-2.09 -1.57,-3.03 -2.82,-2.82 -0.63,0 -1.18,0.31 -1.65,0.94 -0.47,0.63 -0.65,1.57 -0.55,2.82 0.1,1.36 0.57,2.85 1.41,4.47 0.84,1.62 2.25,3.16 4.23,4.63z"/>
   <path class="fil0" d="M393.63 51.49c-2.29,0 -4.34,-0.5 -6.14,-1.49 -1.8,-0.99 -3.21,-2.35 -4.23,-4.08 -1.02,-1.73 -1.53,-3.71 -1.53,-5.95 0,-2.24 0.51,-4.22 1.53,-5.95 1.02,-1.73 2.43,-3.08 4.23,-4.06 1.8,-0.98 3.84,-1.47 6.14,-1.47 2.04,0 3.86,0.4 5.46,1.21 1.6,0.81 2.84,2 3.72,3.59l-3.1 2c-0.74,-1.1 -1.64,-1.92 -2.7,-2.44 -1.06,-0.52 -2.2,-0.79 -3.42,-0.79 -1.47,0 -2.79,0.33 -3.95,0.98 -1.16,0.65 -2.08,1.57 -2.76,2.74 -0.68,1.17 -1.02,2.57 -1.02,4.18 0,1.61 0.34,3.02 1.02,4.21 0.68,1.19 1.6,2.11 2.76,2.76 1.16,0.65 2.48,0.98 3.95,0.98 1.22,0 2.36,-0.26 3.42,-0.79 1.06,-0.52 1.96,-1.34 2.7,-2.44l3.1 1.95c-0.88,1.56 -2.12,2.75 -3.72,3.59 -1.6,0.84 -3.42,1.25 -5.46,1.25zm21.05 0c-2.27,0 -4.28,-0.5 -6.03,-1.49 -1.76,-0.99 -3.14,-2.36 -4.16,-4.1 -1.02,-1.74 -1.53,-3.72 -1.53,-5.93 0,-2.24 0.51,-4.22 1.53,-5.95 1.02,-1.73 2.41,-3.08 4.16,-4.06 1.76,-0.98 3.77,-1.47 6.03,-1.47 2.24,0 4.24,0.49 6.01,1.47 1.77,0.98 3.16,2.32 4.16,4.04 1.01,1.71 1.51,3.7 1.51,5.97 0,2.24 -0.5,4.22 -1.51,5.95 -1.01,1.73 -2.39,3.09 -4.16,4.08 -1.77,0.99 -3.77,1.49 -6.01,1.49zm0 -3.57c1.44,0 2.74,-0.33 3.89,-0.98 1.15,-0.65 2.05,-1.58 2.7,-2.78 0.65,-1.2 0.98,-2.6 0.98,-4.18 0,-1.61 -0.33,-3.01 -0.98,-4.18 -0.65,-1.18 -1.55,-2.09 -2.7,-2.74 -1.15,-0.65 -2.44,-0.98 -3.89,-0.98 -1.44,0 -2.73,0.33 -3.87,0.98 -1.13,0.65 -2.04,1.57 -2.72,2.74 -0.68,1.17 -1.02,2.57 -1.02,4.18 0,1.59 0.34,2.98 1.02,4.18 0.68,1.2 1.59,2.13 2.72,2.78 1.13,0.65 2.42,0.98 3.87,0.98zm26.65 -19.42c1.84,0 3.46,0.35 4.86,1.06 1.4,0.71 2.5,1.78 3.29,3.23 0.79,1.44 1.19,3.27 1.19,5.48l0 12.96 -4.08 0 0 -12.49c0,-2.18 -0.53,-3.82 -1.59,-4.93 -1.06,-1.1 -2.56,-1.66 -4.48,-1.66 -1.44,0 -2.71,0.28 -3.78,0.85 -1.08,0.57 -1.91,1.4 -2.49,2.51 -0.58,1.1 -0.87,2.48 -0.87,4.12l0 11.6 -4.08 0 0 -22.52 3.91 0 0 6.08 -0.64 -1.61c0.74,-1.47 1.87,-2.62 3.4,-3.44 1.53,-0.82 3.31,-1.23 5.35,-1.23zm23.85 22.98c-2.27,0 -4.28,-0.5 -6.03,-1.49 -1.76,-0.99 -3.14,-2.36 -4.16,-4.1 -1.02,-1.74 -1.53,-3.72 -1.53,-5.93 0,-2.24 0.51,-4.22 1.53,-5.95 1.02,-1.73 2.41,-3.08 4.16,-4.06 1.76,-0.98 3.77,-1.47 6.03,-1.47 2.24,0 4.24,0.49 6.01,1.47 1.77,0.98 3.16,2.32 4.16,4.04 1.01,1.71 1.51,3.7 1.51,5.97 0,2.24 -0.5,4.22 -1.51,5.95 -1.01,1.73 -2.39,3.09 -4.16,4.08 -1.77,0.99 -3.77,1.49 -6.01,1.49zm0 -3.57c1.44,0 2.74,-0.33 3.89,-0.98 1.15,-0.65 2.05,-1.58 2.7,-2.78 0.65,-1.2 0.98,-2.6 0.98,-4.18 0,-1.61 -0.33,-3.01 -0.98,-4.18 -0.65,-1.18 -1.55,-2.09 -2.7,-2.74 -1.15,-0.65 -2.44,-0.98 -3.89,-0.98 -1.44,0 -2.73,0.33 -3.87,0.98 -1.13,0.65 -2.04,1.57 -2.72,2.74 -0.68,1.17 -1.02,2.57 -1.02,4.18 0,1.59 0.34,2.98 1.02,4.18 0.68,1.2 1.59,2.13 2.72,2.78 1.13,0.65 2.42,0.98 3.87,0.98zm21.09 3.57c-1.87,0 -3.65,-0.25 -5.33,-0.76 -1.69,-0.51 -3.01,-1.13 -3.97,-1.87l1.7 -3.23c0.96,0.65 2.15,1.2 3.57,1.66 1.42,0.45 2.86,0.68 4.33,0.68 1.9,0 3.26,-0.27 4.1,-0.81 0.84,-0.54 1.25,-1.29 1.25,-2.25 0,-0.71 -0.26,-1.26 -0.77,-1.66 -0.51,-0.4 -1.18,-0.69 -2.02,-0.89 -0.84,-0.2 -1.76,-0.38 -2.78,-0.53 -1.02,-0.16 -2.04,-0.35 -3.06,-0.6 -1.02,-0.24 -1.96,-0.58 -2.8,-1.02 -0.85,-0.44 -1.53,-1.05 -2.04,-1.83 -0.51,-0.78 -0.76,-1.82 -0.76,-3.12 0,-1.36 0.38,-2.55 1.15,-3.57 0.76,-1.02 1.85,-1.81 3.25,-2.36 1.4,-0.55 3.07,-0.83 4.99,-0.83 1.47,0 2.97,0.18 4.48,0.53 1.52,0.35 2.75,0.86 3.72,1.51l-1.74 3.23c-1.02,-0.68 -2.08,-1.15 -3.19,-1.4 -1.1,-0.26 -2.21,-0.38 -3.31,-0.38 -1.78,0 -3.12,0.29 -3.99,0.87 -0.88,0.58 -1.32,1.32 -1.32,2.23 0,0.76 0.26,1.35 0.79,1.76 0.52,0.41 1.2,0.73 2.04,0.96 0.84,0.23 1.76,0.42 2.78,0.57 1.02,0.16 2.04,0.35 3.06,0.6 1.02,0.24 1.95,0.57 2.78,1 0.84,0.42 1.52,1.02 2.04,1.78 0.52,0.76 0.79,1.78 0.79,3.06 0,1.36 -0.4,2.53 -1.19,3.53 -0.79,0.99 -1.91,1.76 -3.36,2.32 -1.44,0.55 -3.17,0.83 -5.18,0.83zm21.94 0c-2.29,0 -4.34,-0.5 -6.14,-1.49 -1.8,-0.99 -3.21,-2.35 -4.23,-4.08 -1.02,-1.73 -1.53,-3.71 -1.53,-5.95 0,-2.24 0.51,-4.22 1.53,-5.95 1.02,-1.73 2.43,-3.08 4.23,-4.06 1.8,-0.98 3.84,-1.47 6.14,-1.47 2.04,0 3.86,0.4 5.46,1.21 1.6,0.81 2.84,2 3.72,3.59l-3.1 2c-0.74,-1.1 -1.64,-1.92 -2.7,-2.44 -1.06,-0.52 -2.2,-0.79 -3.42,-0.79 -1.47,0 -2.79,0.33 -3.95,0.98 -1.16,0.65 -2.08,1.57 -2.76,2.74 -0.68,1.17 -1.02,2.57 -1.02,4.18 0,1.61 0.34,3.02 1.02,4.21 0.68,1.19 1.6,2.11 2.76,2.76 1.16,0.65 2.48,0.98 3.95,0.98 1.22,0 2.36,-0.26 3.42,-0.79 1.06,-0.52 1.96,-1.34 2.7,-2.44l3.1 1.95c-0.88,1.56 -2.12,2.75 -3.72,3.59 -1.6,0.84 -3.42,1.25 -5.46,1.25zm21.05 0c-2.27,0 -4.28,-0.5 -6.03,-1.49 -1.76,-0.99 -3.14,-2.36 -4.16,-4.1 -1.02,-1.74 -1.53,-3.72 -1.53,-5.93 0,-2.24 0.51,-4.22 1.53,-5.95 1.02,-1.73 2.41,-3.08 4.16,-4.06 1.76,-0.98 3.77,-1.47 6.03,-1.47 2.24,0 4.24,0.49 6.01,1.47 1.77,0.98 3.16,2.32 4.16,4.04 1.01,1.71 1.51,3.7 1.51,5.97 0,2.24 -0.5,4.22 -1.51,5.95 -1.01,1.73 -2.39,3.09 -4.16,4.08 -1.77,0.99 -3.77,1.49 -6.01,1.49zm0 -3.57c1.44,0 2.74,-0.33 3.89,-0.98 1.15,-0.65 2.05,-1.58 2.7,-2.78 0.65,-1.2 0.98,-2.6 0.98,-4.18 0,-1.61 -0.33,-3.01 -0.98,-4.18 -0.65,-1.18 -1.55,-2.09 -2.7,-2.74 -1.15,-0.65 -2.44,-0.98 -3.89,-0.98 -1.44,0 -2.73,0.33 -3.87,0.98 -1.13,0.65 -2.04,1.57 -2.72,2.74 -0.68,1.17 -1.02,2.57 -1.02,4.18 0,1.59 0.34,2.98 1.02,4.18 0.68,1.2 1.59,2.13 2.72,2.78 1.13,0.65 2.42,0.98 3.87,0.98zm15.1 3.57c-0.79,0 -1.47,-0.28 -2.04,-0.83 -0.57,-0.55 -0.85,-1.25 -0.85,-2.1 0,-0.85 0.28,-1.54 0.85,-2.08 0.57,-0.54 1.25,-0.81 2.04,-0.81 0.76,0 1.42,0.27 1.98,0.81 0.55,0.54 0.83,1.23 0.83,2.08 0,0.85 -0.28,1.55 -0.83,2.1 -0.55,0.55 -1.21,0.83 -1.98,0.83z"/>
  </g>
 </g>
</svg>
